<svg id="svg" version="1.1" xmlns="http://www.w3.org/2000/svg" xmlns:xlink="http://www.w3.org/1999/xlink" width="400"
     height="400" viewBox="0, 0, 400,400">
    <g id="svgg">
        <path id="path1"
              d="M191.200 60.599 C 187.398 61.364,183.280 63.121,178.200 66.145 C 177.320 66.668,173.619 68.811,169.975 70.907 C 166.332 73.002,160.482 76.379,156.975 78.412 C 153.469 80.445,149.790 82.556,148.800 83.104 C 147.810 83.653,146.010 84.690,144.800 85.410 C 143.590 86.130,141.970 87.076,141.200 87.513 C 140.430 87.951,134.040 91.635,127.000 95.700 C 119.960 99.765,109.000 106.091,102.645 109.758 C 86.324 119.173,84.138 120.945,79.723 128.329 C 74.567 136.953,74.731 134.553,74.876 199.000 L 75.000 254.200 76.104 257.719 C 80.090 270.429,83.662 273.797,107.731 287.547 C 109.327 288.459,121.232 295.308,123.900 296.849 C 126.110 298.126,127.371 298.853,142.200 307.401 C 150.120 311.967,157.140 316.016,157.800 316.399 C 179.512 329.001,182.466 330.657,185.271 331.805 C 193.094 335.007,203.171 335.249,210.200 332.404 C 213.576 331.037,219.305 327.895,235.000 318.800 C 244.007 313.581,252.542 308.647,255.600 306.891 C 257.690 305.691,259.940 304.391,260.600 304.003 C 261.558 303.439,272.549 297.095,278.600 293.613 C 279.260 293.233,281.600 291.880,283.800 290.605 C 286.000 289.330,288.610 287.838,289.600 287.290 C 290.590 286.742,291.580 286.161,291.800 286.000 C 292.020 285.839,293.010 285.255,294.000 284.704 C 313.498 273.833,318.559 268.291,321.393 254.705 C 322.340 250.168,322.303 143.955,321.353 139.343 C 319.481 130.250,314.304 122.325,306.948 117.293 C 305.424 116.251,289.695 107.106,262.200 91.278 C 256.547 88.023,256.836 88.190,249.663 84.050 C 246.947 82.482,244.666 81.200,244.592 81.200 C 244.519 81.200,243.051 80.339,241.329 79.286 C 238.566 77.596,234.816 75.406,230.400 72.903 C 229.630 72.466,225.580 70.141,221.400 67.736 C 208.287 60.191,201.358 58.553,191.200 60.599 M205.035 81.464 C 206.336 82.109,210.910 84.682,215.200 87.182 C 219.490 89.682,225.970 93.430,229.600 95.511 C 233.230 97.592,236.740 99.609,237.400 99.994 C 242.433 102.927,252.478 108.739,257.800 111.799 C 263.107 114.850,269.113 118.318,291.000 130.967 C 291.440 131.222,292.820 132.017,294.067 132.735 C 296.929 134.382,299.369 137.014,300.736 139.930 L 301.800 142.200 301.800 197.200 L 301.800 252.200 300.736 254.470 C 300.151 255.719,298.914 257.562,297.987 258.567 C 296.420 260.268,292.758 262.582,281.874 268.751 C 281.145 269.165,278.130 270.903,275.174 272.615 C 263.572 279.334,254.254 284.714,246.600 289.114 C 242.200 291.644,236.440 294.973,233.800 296.512 C 229.225 299.179,228.221 299.759,225.000 301.600 C 224.230 302.040,222.970 302.760,222.200 303.200 C 219.438 304.778,218.109 305.546,211.800 309.208 C 198.700 316.811,197.882 316.739,180.200 306.397 C 179.540 306.011,174.860 303.310,169.800 300.394 C 164.740 297.478,158.980 294.153,157.000 293.005 C 155.020 291.858,149.890 288.891,145.600 286.411 C 136.892 281.379,136.963 281.420,131.400 278.191 C 129.200 276.913,122.720 273.183,117.000 269.900 C 101.314 260.899,100.428 260.342,98.695 258.400 C 97.812 257.410,96.620 255.610,96.045 254.400 L 95.000 252.200 94.886 198.400 C 94.804 160.281,94.899 144.082,95.211 142.823 C 96.453 137.801,98.853 135.045,105.200 131.350 C 109.757 128.697,119.407 123.125,121.500 121.938 C 123.534 120.784,125.121 119.866,129.000 117.600 C 130.980 116.443,133.410 115.047,134.400 114.498 C 135.390 113.948,137.190 112.913,138.400 112.197 C 140.528 110.938,150.079 105.421,152.574 104.009 C 153.248 103.628,156.301 101.850,159.359 100.058 C 162.416 98.266,164.973 96.800,165.041 96.800 C 165.109 96.800,166.118 96.233,167.282 95.539 C 168.447 94.846,171.740 92.936,174.600 91.295 C 177.460 89.654,180.340 87.993,181.000 87.605 C 195.219 79.242,198.738 78.343,205.035 81.464 M147.767 159.967 C 142.411 162.266,143.790 166.676,151.538 172.023 C 154.102 173.793,158.990 177.199,162.400 179.592 C 165.810 181.985,170.130 185.005,172.000 186.303 C 190.702 199.285,190.835 199.388,189.782 200.180 C 189.352 200.504,179.314 207.557,167.475 215.853 C 145.438 231.296,144.800 231.818,144.800 234.400 C 144.800 239.928,149.132 240.632,155.725 236.175 C 159.346 233.728,178.227 220.541,181.400 218.243 C 187.179 214.060,199.100 205.879,199.425 205.874 C 199.659 205.870,201.279 206.858,203.025 208.070 C 204.771 209.282,208.270 211.709,210.800 213.462 C 213.330 215.216,217.830 218.367,220.800 220.465 C 229.043 226.288,242.298 235.559,245.131 237.482 C 249.761 240.624,254.154 239.153,254.154 234.460 C 254.154 231.785,253.900 231.531,245.009 225.316 C 234.737 218.135,230.035 214.829,228.200 213.498 C 227.320 212.860,224.620 210.975,222.200 209.308 C 207.635 199.281,207.960 199.591,210.309 197.972 C 214.612 195.008,227.014 186.370,229.800 184.397 C 231.560 183.151,235.790 180.181,239.200 177.796 C 255.613 166.318,255.563 166.372,253.732 162.513 C 251.451 157.706,249.378 158.339,235.800 167.989 C 234.040 169.239,231.250 171.206,229.600 172.359 C 227.950 173.512,224.170 176.170,221.200 178.267 C 218.230 180.363,214.270 183.137,212.400 184.430 C 210.530 185.724,206.930 188.225,204.400 189.989 C 201.870 191.753,199.656 193.197,199.480 193.198 C 199.304 193.199,195.614 190.710,191.280 187.667 C 174.639 175.982,165.940 169.899,155.487 162.638 C 151.489 159.861,149.565 159.196,147.767 159.967 "
              stroke="none" fill="#f73267" fill-rule="evenodd"></path>
    </g>
</svg>
